<svg id="visual" viewBox="0 0 480 1690" width="480" height="1690" xmlns="http://www.w3.org/2000/svg" xmlns:xlink="http://www.w3.org/1999/xlink" version="1.1"><g stroke-width="1" stroke-linejoin="bevel"><path d="M209.3 835L174 782.2L178 832Z" fill="#19435d" stroke="#19435d"></path><path d="M209.3 835L217.3 767.2L174 782.2Z" fill="#0c2435" stroke="#0c2435"></path><path d="M209.3 835L252.7 815L217.3 767.2Z" fill="#00101c" stroke="#00101c"></path><path d="M281 743.4L215.3 731.4L217.3 767.2Z" fill="#297ea6" stroke="#297ea6"></path><path d="M217.3 767.2L215.3 731.4L174 782.2Z" fill="#1d4e6b" stroke="#1d4e6b"></path><path d="M252.7 815L273.7 805.2L217.3 767.2Z" fill="#19435d" stroke="#19435d"></path><path d="M176 707.4L119.7 742.4L174 782.2Z" fill="#205a7a" stroke="#205a7a"></path><path d="M174 782.2L91.7 805.2L178 832Z" fill="#277297" stroke="#277297"></path><path d="M215.3 731.4L176 707.4L174 782.2Z" fill="#112e42" stroke="#112e42"></path><path d="M119.7 742.4L91.7 805.2L174 782.2Z" fill="#112e42" stroke="#112e42"></path><path d="M91.7 805.2L96.7 838L178 832Z" fill="#246688" stroke="#246688"></path><path d="M178 832L196.3 932.8L209.3 835Z" fill="#0c2435" stroke="#0c2435"></path><path d="M273.7 805.2L281 743.4L217.3 767.2Z" fill="#246688" stroke="#246688"></path><path d="M215.3 731.4L196.3 686.6L176 707.4Z" fill="#1d4e6b" stroke="#1d4e6b"></path><path d="M281 743.4L245.7 709.4L215.3 731.4Z" fill="#297ea6" stroke="#297ea6"></path><path d="M252.7 815L305 806.2L273.7 805.2Z" fill="#277297" stroke="#277297"></path><path d="M273.7 805.2L305 806.2L281 743.4Z" fill="#19435d" stroke="#19435d"></path><path d="M286.7 921.6L305 806.2L252.7 815Z" fill="#246688" stroke="#246688"></path><path d="M91.7 805.2L89.3 827L96.7 838Z" fill="#112e42" stroke="#112e42"></path><path d="M96.7 838L140.7 902.8L178 832Z" fill="#00101c" stroke="#00101c"></path><path d="M209.3 835L241.7 927.8L252.7 815Z" fill="#112e42" stroke="#112e42"></path><path d="M196.3 686.6L166 696.6L176 707.4Z" fill="#00101c" stroke="#00101c"></path><path d="M176 707.4L166 696.6L119.7 742.4Z" fill="#112e42" stroke="#112e42"></path><path d="M245.7 709.4L196.3 686.6L215.3 731.4Z" fill="#205a7a" stroke="#205a7a"></path><path d="M140.7 902.8L196.3 932.8L178 832Z" fill="#081a28" stroke="#081a28"></path><path d="M196.3 932.8L241.7 927.8L209.3 835Z" fill="#246688" stroke="#246688"></path><path d="M140.7 902.8L160 930.8L196.3 932.8Z" fill="#081a28" stroke="#081a28"></path><path d="M109.7 661.8L86.3 720.4L119.7 742.4Z" fill="#081a28" stroke="#081a28"></path><path d="M119.7 742.4L86.3 720.4L91.7 805.2Z" fill="#246688" stroke="#246688"></path><path d="M91.7 805.2L51.3 794.2L89.3 827Z" fill="#297ea6" stroke="#297ea6"></path><path d="M109.7 661.8L119.7 742.4L166 696.6Z" fill="#15384f" stroke="#15384f"></path><path d="M245.7 709.4L199 664.8L196.3 686.6Z" fill="#1d4e6b" stroke="#1d4e6b"></path><path d="M196.3 686.6L199 664.8L166 696.6Z" fill="#246688" stroke="#246688"></path><path d="M86.3 720.4L51.3 794.2L91.7 805.2Z" fill="#112e42" stroke="#112e42"></path><path d="M51.3 935.8L140.7 902.8L96.7 838Z" fill="#277297" stroke="#277297"></path><path d="M51.3 935.8L88.7 967.6L140.7 902.8Z" fill="#19435d" stroke="#19435d"></path><path d="M105.7 988.4L171 963.6L160 930.8Z" fill="#297ea6" stroke="#297ea6"></path><path d="M241.7 927.8L286.7 921.6L252.7 815Z" fill="#00101c" stroke="#00101c"></path><path d="M239.3 955.6L280 934.8L241.7 927.8Z" fill="#246688" stroke="#246688"></path><path d="M241.7 927.8L280 934.8L286.7 921.6Z" fill="#112e42" stroke="#112e42"></path><path d="M171 963.6L239.3 955.6L196.3 932.8Z" fill="#112e42" stroke="#112e42"></path><path d="M196.3 932.8L239.3 955.6L241.7 927.8Z" fill="#112e42" stroke="#112e42"></path><path d="M286.7 921.6L354 819L305 806.2Z" fill="#277297" stroke="#277297"></path><path d="M358.3 744.4L346.3 723.6L281 743.4Z" fill="#00101c" stroke="#00101c"></path><path d="M364.3 814.2L354 819L388.7 825.2Z" fill="#0c2435" stroke="#0c2435"></path><path d="M88.7 967.6L160 930.8L140.7 902.8Z" fill="#00101c" stroke="#00101c"></path><path d="M160 930.8L171 963.6L196.3 932.8Z" fill="#0c2435" stroke="#0c2435"></path><path d="M121.7 648.6L109.7 661.8L166 696.6Z" fill="#205a7a" stroke="#205a7a"></path><path d="M86.3 720.4L0 723.4L51.3 794.2Z" fill="#081a28" stroke="#081a28"></path><path d="M388.7 825.2L354 819L396.3 836Z" fill="#246688" stroke="#246688"></path><path d="M354 819L358.3 744.4L305 806.2Z" fill="#00101c" stroke="#00101c"></path><path d="M281 743.4L295.7 665.6L245.7 709.4Z" fill="#0c2435" stroke="#0c2435"></path><path d="M245.7 709.4L267.7 628.8L199 664.8Z" fill="#0c2435" stroke="#0c2435"></path><path d="M358.3 744.4L281 743.4L305 806.2Z" fill="#277297" stroke="#277297"></path><path d="M346.3 723.6L295.7 665.6L281 743.4Z" fill="#246688" stroke="#246688"></path><path d="M199 664.8L121.7 648.6L166 696.6Z" fill="#15384f" stroke="#15384f"></path><path d="M109.7 661.8L78.3 680.6L86.3 720.4Z" fill="#1d4e6b" stroke="#1d4e6b"></path><path d="M364.3 814.2L358.3 744.4L354 819Z" fill="#112e42" stroke="#112e42"></path><path d="M198.3 599.8L121.7 648.6L199 664.8Z" fill="#081a28" stroke="#081a28"></path><path d="M109.7 661.8L108.7 612.9L78.3 680.6Z" fill="#246688" stroke="#246688"></path><path d="M239.3 955.6L303 960.6L280 934.8Z" fill="#277297" stroke="#277297"></path><path d="M280 934.8L303 960.6L286.7 921.6Z" fill="#112e42" stroke="#112e42"></path><path d="M288.7 1026.3L303 960.6L239.3 955.6Z" fill="#277297" stroke="#277297"></path><path d="M335 633.8L325 667.6L423.7 660.6Z" fill="#112e42" stroke="#112e42"></path><path d="M346.3 723.6L325 667.6L295.7 665.6Z" fill="#00101c" stroke="#00101c"></path><path d="M295.7 665.6L267.7 628.8L245.7 709.4Z" fill="#1d4e6b" stroke="#1d4e6b"></path><path d="M303 602.9L267.7 628.8L295.7 665.6Z" fill="#277297" stroke="#277297"></path><path d="M396.3 836L354 819L400.3 907.8Z" fill="#1d4e6b" stroke="#1d4e6b"></path><path d="M364.3 814.2L410.7 731.4L358.3 744.4Z" fill="#297ea6" stroke="#297ea6"></path><path d="M51.3 935.8L96.7 838L0 866Z" fill="#081a28" stroke="#081a28"></path><path d="M215.3 1019.4L231.7 1013.4L239.3 955.6Z" fill="#15384f" stroke="#15384f"></path><path d="M0 860.8L96.7 838L89.3 827Z" fill="#297ea6" stroke="#297ea6"></path><path d="M267.7 628.8L251.3 617.9L199 664.8Z" fill="#297ea6" stroke="#297ea6"></path><path d="M0 723.4L0 819.2L51.3 794.2Z" fill="#15384f" stroke="#15384f"></path><path d="M51.3 794.2L0 860.8L89.3 827Z" fill="#1d4e6b" stroke="#1d4e6b"></path><path d="M400.3 907.8L354 819L286.7 921.6Z" fill="#297ea6" stroke="#297ea6"></path><path d="M388.7 825.2L410.7 731.4L364.3 814.2Z" fill="#1d4e6b" stroke="#1d4e6b"></path><path d="M0 819.2L0 860.8L51.3 794.2Z" fill="#15384f" stroke="#15384f"></path><path d="M61.3 1003.4L105.7 988.4L88.7 967.6Z" fill="#297ea6" stroke="#297ea6"></path><path d="M88.7 967.6L105.7 988.4L160 930.8Z" fill="#1d4e6b" stroke="#1d4e6b"></path><path d="M0 860.8L0 866L96.7 838Z" fill="#00101c" stroke="#00101c"></path><path d="M251.3 617.9L198.3 599.8L199 664.8Z" fill="#205a7a" stroke="#205a7a"></path><path d="M61.3 1003.4L62.3 962.6L0 974.6Z" fill="#246688" stroke="#246688"></path><path d="M51.3 935.8L62.3 962.6L88.7 967.6Z" fill="#1d4e6b" stroke="#1d4e6b"></path><path d="M303 960.6L346.3 949.6L286.7 921.6Z" fill="#15384f" stroke="#15384f"></path><path d="M270.7 548.9L194 594.9L198.3 599.8Z" fill="#15384f" stroke="#15384f"></path><path d="M198.3 599.8L194 594.9L121.7 648.6Z" fill="#081a28" stroke="#081a28"></path><path d="M121.7 648.6L108.7 612.9L109.7 661.8Z" fill="#205a7a" stroke="#205a7a"></path><path d="M215.3 1019.4L239.3 955.6L171 963.6Z" fill="#00101c" stroke="#00101c"></path><path d="M303 960.6L368.3 986.4L346.3 949.6Z" fill="#15384f" stroke="#15384f"></path><path d="M194 594.9L108.7 612.9L121.7 648.6Z" fill="#1d4e6b" stroke="#1d4e6b"></path><path d="M78.3 680.6L0 723.4L86.3 720.4Z" fill="#19435d" stroke="#19435d"></path><path d="M0 653.6L0 723.4L78.3 680.6Z" fill="#15384f" stroke="#15384f"></path><path d="M202.3 1034.3L215.3 1019.4L171 963.6Z" fill="#0c2435" stroke="#0c2435"></path><path d="M325 667.6L335 633.8L295.7 665.6Z" fill="#0c2435" stroke="#0c2435"></path><path d="M267.7 628.8L303 602.9L251.3 617.9Z" fill="#112e42" stroke="#112e42"></path><path d="M251.3 617.9L270.7 548.9L198.3 599.8Z" fill="#205a7a" stroke="#205a7a"></path><path d="M423.7 660.6L325 667.6L346.3 723.6Z" fill="#205a7a" stroke="#205a7a"></path><path d="M410.7 731.4L346.3 723.6L358.3 744.4Z" fill="#297ea6" stroke="#297ea6"></path><path d="M480 817.2L410.7 731.4L388.7 825.2Z" fill="#15384f" stroke="#15384f"></path><path d="M346.3 949.6L400.3 907.8L286.7 921.6Z" fill="#112e42" stroke="#112e42"></path><path d="M396.3 836L480 817.2L388.7 825.2Z" fill="#277297" stroke="#277297"></path><path d="M132 1039.4L202.3 1034.3L171 963.6Z" fill="#297ea6" stroke="#297ea6"></path><path d="M215.3 1019.4L202.3 1034.3L231.7 1013.4Z" fill="#277297" stroke="#277297"></path><path d="M231.7 1013.4L288.7 1026.3L239.3 955.6Z" fill="#19435d" stroke="#19435d"></path><path d="M335 633.8L303 602.9L295.7 665.6Z" fill="#297ea6" stroke="#297ea6"></path><path d="M400.3 907.8L414.7 877.8L396.3 836Z" fill="#277297" stroke="#277297"></path><path d="M108.7 612.9L27.3 637.8L78.3 680.6Z" fill="#19435d" stroke="#19435d"></path><path d="M294 1038.4L288.7 1026.3L231.7 1013.4Z" fill="#246688" stroke="#246688"></path><path d="M346.3 949.6L368.3 986.4L400.3 907.8Z" fill="#112e42" stroke="#112e42"></path><path d="M0 974.6L62.3 962.6L51.3 935.8Z" fill="#19435d" stroke="#19435d"></path><path d="M62.3 962.6L61.3 1003.4L88.7 967.6Z" fill="#297ea6" stroke="#297ea6"></path><path d="M105.7 988.4L132 1039.4L171 963.6Z" fill="#246688" stroke="#246688"></path><path d="M99.7 1050.3L132 1039.4L105.7 988.4Z" fill="#112e42" stroke="#112e42"></path><path d="M480 882.8L435.7 866L414.7 877.8Z" fill="#081a28" stroke="#081a28"></path><path d="M414.7 877.8L435.7 866L396.3 836Z" fill="#277297" stroke="#277297"></path><path d="M27.3 637.8L0 653.6L78.3 680.6Z" fill="#297ea6" stroke="#297ea6"></path><path d="M288.7 1026.3L368.3 986.4L303 960.6Z" fill="#00101c" stroke="#00101c"></path><path d="M480 882.8L480 836L435.7 866Z" fill="#19435d" stroke="#19435d"></path><path d="M423.7 660.6L354.3 610.8L335 633.8Z" fill="#1d4e6b" stroke="#1d4e6b"></path><path d="M335 633.8L354.3 610.8L303 602.9Z" fill="#0c2435" stroke="#0c2435"></path><path d="M202.3 1034.3L294 1038.4L231.7 1013.4Z" fill="#297ea6" stroke="#297ea6"></path><path d="M288.7 1026.3L346 1053.3L368.3 986.4Z" fill="#0c2435" stroke="#0c2435"></path><path d="M346 1053.3L294 1038.4L305 1101.1Z" fill="#297ea6" stroke="#297ea6"></path><path d="M0 866L0 974.6L51.3 935.8Z" fill="#297ea6" stroke="#297ea6"></path><path d="M61.3 1003.4L99.7 1050.3L105.7 988.4Z" fill="#19435d" stroke="#19435d"></path><path d="M36.3 1087.3L99.7 1050.3L61.3 1003.4Z" fill="#1d4e6b" stroke="#1d4e6b"></path><path d="M132 1039.4L120 1061.3L202.3 1034.3Z" fill="#205a7a" stroke="#205a7a"></path><path d="M99.7 1050.3L120 1061.3L132 1039.4Z" fill="#205a7a" stroke="#205a7a"></path><path d="M368.3 541.9L270.7 548.9L303 602.9Z" fill="#081a28" stroke="#081a28"></path><path d="M303 602.9L270.7 548.9L251.3 617.9Z" fill="#0c2435" stroke="#0c2435"></path><path d="M194 594.9L188 523.1L108.7 612.9Z" fill="#00101c" stroke="#00101c"></path><path d="M69.3 543.9L0 597.8L27.3 637.8Z" fill="#277297" stroke="#277297"></path><path d="M480 693.6L423.7 660.6L410.7 731.4Z" fill="#081a28" stroke="#081a28"></path><path d="M410.7 731.4L423.7 660.6L346.3 723.6Z" fill="#246688" stroke="#246688"></path><path d="M354.3 610.8L368.3 541.9L303 602.9Z" fill="#205a7a" stroke="#205a7a"></path><path d="M270.7 548.9L188 523.1L194 594.9Z" fill="#1d4e6b" stroke="#1d4e6b"></path><path d="M27.3 637.8L0 597.8L0 653.6Z" fill="#00101c" stroke="#00101c"></path><path d="M0 974.6L0 1009.4L61.3 1003.4Z" fill="#277297" stroke="#277297"></path><path d="M122.7 1130.1L140 1120.1L120 1061.3Z" fill="#297ea6" stroke="#297ea6"></path><path d="M480 836L480 817.2L435.7 866Z" fill="#15384f" stroke="#15384f"></path><path d="M435.7 866L480 817.2L396.3 836Z" fill="#205a7a" stroke="#205a7a"></path><path d="M423.7 660.6L396.7 602.9L354.3 610.8Z" fill="#19435d" stroke="#19435d"></path><path d="M480 882.8L414.7 877.8L400.3 907.8Z" fill="#0c2435" stroke="#0c2435"></path><path d="M69.3 543.9L27.3 637.8L108.7 612.9Z" fill="#112e42" stroke="#112e42"></path><path d="M406.7 1034.4L420.7 983.6L368.3 986.4Z" fill="#112e42" stroke="#112e42"></path><path d="M368.3 986.4L420.7 983.6L400.3 907.8Z" fill="#112e42" stroke="#112e42"></path><path d="M358.3 1071.3L346 1053.3L305 1101.1Z" fill="#246688" stroke="#246688"></path><path d="M294 1038.4L346 1053.3L288.7 1026.3Z" fill="#00101c" stroke="#00101c"></path><path d="M82.7 529.1L69.3 543.9L108.7 612.9Z" fill="#00101c" stroke="#00101c"></path><path d="M0 1009.4L0 1022.3L61.3 1003.4Z" fill="#246688" stroke="#246688"></path><path d="M480 980.4L480 882.8L400.3 907.8Z" fill="#00101c" stroke="#00101c"></path><path d="M480 817.2L480 723.4L410.7 731.4Z" fill="#19435d" stroke="#19435d"></path><path d="M423.7 660.6L465.7 600.8L396.7 602.9Z" fill="#246688" stroke="#246688"></path><path d="M188 523.1L82.7 529.1L108.7 612.9Z" fill="#00101c" stroke="#00101c"></path><path d="M69.3 543.9L0 543.9L0 597.8Z" fill="#297ea6" stroke="#297ea6"></path><path d="M260.7 501.1L247.7 506.3L270.7 548.9Z" fill="#246688" stroke="#246688"></path><path d="M270.7 548.9L247.7 506.3L188 523.1Z" fill="#1d4e6b" stroke="#1d4e6b"></path><path d="M188 523.1L177.3 501.1L82.7 529.1Z" fill="#15384f" stroke="#15384f"></path><path d="M480 723.4L480 693.6L410.7 731.4Z" fill="#19435d" stroke="#19435d"></path><path d="M247.7 506.3L177.3 501.1L188 523.1Z" fill="#19435d" stroke="#19435d"></path><path d="M346 1053.3L406.7 1034.4L368.3 986.4Z" fill="#19435d" stroke="#19435d"></path><path d="M420.7 983.6L480 980.4L400.3 907.8Z" fill="#1d4e6b" stroke="#1d4e6b"></path><path d="M306 507.1L260.7 501.1L270.7 548.9Z" fill="#297ea6" stroke="#297ea6"></path><path d="M247.7 506.3L206.3 445.3L177.3 501.1Z" fill="#00101c" stroke="#00101c"></path><path d="M305 1101.1L294 1038.4L251.3 1132.9Z" fill="#277297" stroke="#277297"></path><path d="M346 1053.3L358.3 1071.3L406.7 1034.4Z" fill="#15384f" stroke="#15384f"></path><path d="M399.7 553.1L368.3 541.9L396.7 602.9Z" fill="#277297" stroke="#277297"></path><path d="M396.7 602.9L368.3 541.9L354.3 610.8Z" fill="#112e42" stroke="#112e42"></path><path d="M251.3 1132.9L294 1038.4L202.3 1034.3Z" fill="#112e42" stroke="#112e42"></path><path d="M368.3 541.9L306 507.1L270.7 548.9Z" fill="#00101c" stroke="#00101c"></path><path d="M122.7 1130.1L120 1061.3L92.3 1131.1Z" fill="#112e42" stroke="#112e42"></path><path d="M120 1061.3L140 1120.1L202.3 1034.3Z" fill="#00101c" stroke="#00101c"></path><path d="M465.7 600.8L399.7 553.1L396.7 602.9Z" fill="#112e42" stroke="#112e42"></path><path d="M368.3 541.9L351.3 512.3L306 507.1Z" fill="#0c2435" stroke="#0c2435"></path><path d="M0 1022.3L36.3 1087.3L61.3 1003.4Z" fill="#19435d" stroke="#19435d"></path><path d="M423.7 1115.1L428.7 1033.3L406.7 1034.4Z" fill="#297ea6" stroke="#297ea6"></path><path d="M406.7 1034.4L428.7 1033.3L420.7 983.6Z" fill="#246688" stroke="#246688"></path><path d="M423.7 1115.1L406.7 1034.4L358.3 1071.3Z" fill="#081a28" stroke="#081a28"></path><path d="M32.3 509.3L0 543.9L69.3 543.9Z" fill="#1d4e6b" stroke="#1d4e6b"></path><path d="M32.3 509.3L69.3 543.9L82.7 529.1Z" fill="#15384f" stroke="#15384f"></path><path d="M402.3 505.1L351.3 512.3L368.3 541.9Z" fill="#15384f" stroke="#15384f"></path><path d="M306 507.1L284.7 426.5L260.7 501.1Z" fill="#112e42" stroke="#112e42"></path><path d="M228.3 1145.1L251.3 1132.9L202.3 1034.3Z" fill="#112e42" stroke="#112e42"></path><path d="M305 1101.1L338.3 1119.1L358.3 1071.3Z" fill="#081a28" stroke="#081a28"></path><path d="M92.3 1131.1L120 1061.3L99.7 1050.3Z" fill="#297ea6" stroke="#297ea6"></path><path d="M140 1120.1L228.3 1145.1L202.3 1034.3Z" fill="#1d4e6b" stroke="#1d4e6b"></path><path d="M480 985.6L480 980.4L420.7 983.6Z" fill="#297ea6" stroke="#297ea6"></path><path d="M251.3 1132.9L302.7 1123.1L305 1101.1Z" fill="#205a7a" stroke="#205a7a"></path><path d="M428.7 1033.3L480 985.6L420.7 983.6Z" fill="#081a28" stroke="#081a28"></path><path d="M122.7 1130.1L146 1137.9L140 1120.1Z" fill="#277297" stroke="#277297"></path><path d="M351.3 512.3L325 494.3L306 507.1Z" fill="#0c2435" stroke="#0c2435"></path><path d="M159 443.3L137.7 472.3L177.3 501.1Z" fill="#246688" stroke="#246688"></path><path d="M206.3 445.3L247.7 506.3L260.7 501.1Z" fill="#1d4e6b" stroke="#1d4e6b"></path><path d="M177.3 501.1L137.7 472.3L82.7 529.1Z" fill="#205a7a" stroke="#205a7a"></path><path d="M480 604.8L465.7 600.8L423.7 660.6Z" fill="#0c2435" stroke="#0c2435"></path><path d="M399.7 553.1L402.3 505.1L368.3 541.9Z" fill="#00101c" stroke="#00101c"></path><path d="M48.3 493.1L32.3 509.3L82.7 529.1Z" fill="#1d4e6b" stroke="#1d4e6b"></path><path d="M146 1137.9L228.3 1145.1L140 1120.1Z" fill="#112e42" stroke="#112e42"></path><path d="M251.3 1132.9L293 1139.9L302.7 1123.1Z" fill="#1d4e6b" stroke="#1d4e6b"></path><path d="M36.3 1087.3L92.3 1131.1L99.7 1050.3Z" fill="#15384f" stroke="#15384f"></path><path d="M122.7 1130.1L132 1209.7L146 1137.9Z" fill="#0c2435" stroke="#0c2435"></path><path d="M342.3 1140.9L338.3 1119.1L302.7 1123.1Z" fill="#246688" stroke="#246688"></path><path d="M302.7 1123.1L338.3 1119.1L305 1101.1Z" fill="#277297" stroke="#277297"></path><path d="M428.7 1033.3L480 1091.3L480 985.6Z" fill="#19435d" stroke="#19435d"></path><path d="M137.7 472.3L48.3 493.1L82.7 529.1Z" fill="#081a28" stroke="#081a28"></path><path d="M480 693.6L480 604.8L423.7 660.6Z" fill="#081a28" stroke="#081a28"></path><path d="M480 546.1L402.3 505.1L399.7 553.1Z" fill="#246688" stroke="#246688"></path><path d="M480 604.8L480 603.9L465.7 600.8Z" fill="#0c2435" stroke="#0c2435"></path><path d="M301.7 1185.9L293 1139.9L251.3 1132.9Z" fill="#0c2435" stroke="#0c2435"></path><path d="M36.3 1087.3L91.7 1138.9L92.3 1131.1Z" fill="#19435d" stroke="#19435d"></path><path d="M92.3 1131.1L91.7 1138.9L122.7 1130.1Z" fill="#0c2435" stroke="#0c2435"></path><path d="M281 1206.7L251.3 1132.9L228.3 1145.1Z" fill="#1d4e6b" stroke="#1d4e6b"></path><path d="M234.3 420.5L206.3 445.3L260.7 501.1Z" fill="#205a7a" stroke="#205a7a"></path><path d="M137.7 472.3L124.7 424.5L48.3 493.1Z" fill="#277297" stroke="#277297"></path><path d="M32.3 509.3L0 499.1L0 543.9Z" fill="#205a7a" stroke="#205a7a"></path><path d="M48.3 493.1L0 499.1L32.3 509.3Z" fill="#15384f" stroke="#15384f"></path><path d="M0 466.3L0 499.1L48.3 493.1Z" fill="#246688" stroke="#246688"></path><path d="M206.3 445.3L159 443.3L177.3 501.1Z" fill="#15384f" stroke="#15384f"></path><path d="M351.3 512.3L345 456.5L325 494.3Z" fill="#0c2435" stroke="#0c2435"></path><path d="M325 494.3L284.7 426.5L306 507.1Z" fill="#00101c" stroke="#00101c"></path><path d="M480 546.1L399.7 553.1L465.7 600.8Z" fill="#246688" stroke="#246688"></path><path d="M293 1139.9L342.3 1140.9L302.7 1123.1Z" fill="#205a7a" stroke="#205a7a"></path><path d="M338.3 1119.1L423.7 1115.1L358.3 1071.3Z" fill="#0c2435" stroke="#0c2435"></path><path d="M301.7 1185.9L342.3 1140.9L293 1139.9Z" fill="#0c2435" stroke="#0c2435"></path><path d="M402.3 505.1L345 456.5L351.3 512.3Z" fill="#00101c" stroke="#00101c"></path><path d="M342.3 1140.9L423.7 1115.1L338.3 1119.1Z" fill="#277297" stroke="#277297"></path><path d="M480 603.9L480 546.1L465.7 600.8Z" fill="#1d4e6b" stroke="#1d4e6b"></path><path d="M394.7 427.5L342.3 435.5L345 456.5Z" fill="#19435d" stroke="#19435d"></path><path d="M0 1022.3L0 1136.1L36.3 1087.3Z" fill="#1d4e6b" stroke="#1d4e6b"></path><path d="M36.3 1087.3L25.3 1172.9L91.7 1138.9Z" fill="#205a7a" stroke="#205a7a"></path><path d="M202.3 1236.7L228.3 1145.1L146 1137.9Z" fill="#246688" stroke="#246688"></path><path d="M284.7 426.5L234.3 420.5L260.7 501.1Z" fill="#205a7a" stroke="#205a7a"></path><path d="M206.3 445.3L208.3 394.7L159 443.3Z" fill="#246688" stroke="#246688"></path><path d="M146 391.5L124.7 424.5L159 443.3Z" fill="#00101c" stroke="#00101c"></path><path d="M159 443.3L124.7 424.5L137.7 472.3Z" fill="#277297" stroke="#277297"></path><path d="M345 456.5L284.7 426.5L325 494.3Z" fill="#0c2435" stroke="#0c2435"></path><path d="M0 418.5L0 466.3L48.3 493.1Z" fill="#205a7a" stroke="#205a7a"></path><path d="M132 1209.7L122.7 1130.1L91.7 1138.9Z" fill="#081a28" stroke="#081a28"></path><path d="M281 1206.7L301.7 1185.9L251.3 1132.9Z" fill="#00101c" stroke="#00101c"></path><path d="M410.3 1225.7L445.7 1134.9L423.7 1115.1Z" fill="#246688" stroke="#246688"></path><path d="M394.7 427.5L345 456.5L402.3 505.1Z" fill="#112e42" stroke="#112e42"></path><path d="M345 456.5L342.3 435.5L284.7 426.5Z" fill="#112e42" stroke="#112e42"></path><path d="M480 1105.1L480 1091.3L423.7 1115.1Z" fill="#246688" stroke="#246688"></path><path d="M423.7 1115.1L480 1091.3L428.7 1033.3Z" fill="#00101c" stroke="#00101c"></path><path d="M0 1136.1L25.3 1172.9L36.3 1087.3Z" fill="#277297" stroke="#277297"></path><path d="M25.3 1172.9L82.3 1194.7L91.7 1138.9Z" fill="#205a7a" stroke="#205a7a"></path><path d="M82.3 1194.7L132 1209.7L91.7 1138.9Z" fill="#112e42" stroke="#112e42"></path><path d="M232.7 1234.5L281 1206.7L228.3 1145.1Z" fill="#277297" stroke="#277297"></path><path d="M445.7 1134.9L480 1105.1L423.7 1115.1Z" fill="#081a28" stroke="#081a28"></path><path d="M195 356.7L208.3 394.7L224.3 348.9Z" fill="#112e42" stroke="#112e42"></path><path d="M224.3 348.9L208.3 394.7L253.7 350.7Z" fill="#1d4e6b" stroke="#1d4e6b"></path><path d="M234.3 420.5L208.3 394.7L206.3 445.3Z" fill="#277297" stroke="#277297"></path><path d="M124.7 424.5L82.3 398.7L48.3 493.1Z" fill="#00101c" stroke="#00101c"></path><path d="M423.7 1115.1L342.3 1140.9L410.3 1225.7Z" fill="#15384f" stroke="#15384f"></path><path d="M352 1244.5L342.3 1140.9L301.7 1185.9Z" fill="#00101c" stroke="#00101c"></path><path d="M208.3 394.7L146 391.5L159 443.3Z" fill="#15384f" stroke="#15384f"></path><path d="M480 546.1L464.7 480.3L402.3 505.1Z" fill="#1d4e6b" stroke="#1d4e6b"></path><path d="M122.7 378.7L82.3 398.7L124.7 424.5Z" fill="#081a28" stroke="#081a28"></path><path d="M464.7 480.3L394.7 427.5L402.3 505.1Z" fill="#205a7a" stroke="#205a7a"></path><path d="M208.3 394.7L234.3 420.5L253.7 350.7Z" fill="#277297" stroke="#277297"></path><path d="M202.3 1236.7L232.7 1234.5L228.3 1145.1Z" fill="#15384f" stroke="#15384f"></path><path d="M281 1206.7L352 1244.5L301.7 1185.9Z" fill="#0c2435" stroke="#0c2435"></path><path d="M131.7 1247.7L202.3 1236.7L132 1209.7Z" fill="#1d4e6b" stroke="#1d4e6b"></path><path d="M132 1209.7L202.3 1236.7L146 1137.9Z" fill="#00101c" stroke="#00101c"></path><path d="M137 337.9L122.7 378.7L146 391.5Z" fill="#19435d" stroke="#19435d"></path><path d="M146 391.5L122.7 378.7L124.7 424.5Z" fill="#277297" stroke="#277297"></path><path d="M195 356.7L146 391.5L208.3 394.7Z" fill="#081a28" stroke="#081a28"></path><path d="M25.3 1172.9L57.3 1256.5L82.3 1194.7Z" fill="#19435d" stroke="#19435d"></path><path d="M113.7 1246.5L131.7 1247.7L132 1209.7Z" fill="#277297" stroke="#277297"></path><path d="M0 1136.1L0 1191.9L25.3 1172.9Z" fill="#19435d" stroke="#19435d"></path><path d="M62.3 392.5L48.3 493.1L82.3 398.7Z" fill="#15384f" stroke="#15384f"></path><path d="M62.3 392.5L0 418.5L48.3 493.1Z" fill="#112e42" stroke="#112e42"></path><path d="M92.3 335.9L62.3 392.5L82.3 398.7Z" fill="#00101c" stroke="#00101c"></path><path d="M237.3 1247.5L236.7 1238.7L232.7 1234.5Z" fill="#19435d" stroke="#19435d"></path><path d="M232.7 1234.5L236.7 1238.7L281 1206.7Z" fill="#00101c" stroke="#00101c"></path><path d="M202.3 1236.7L237.3 1247.5L232.7 1234.5Z" fill="#00101c" stroke="#00101c"></path><path d="M236.7 1238.7L237.3 1247.5L281 1206.7Z" fill="#277297" stroke="#277297"></path><path d="M241.7 1293.3L237.3 1247.5L202.3 1236.7Z" fill="#15384f" stroke="#15384f"></path><path d="M113.7 1246.5L132 1209.7L82.3 1194.7Z" fill="#0c2435" stroke="#0c2435"></path><path d="M57.3 1256.5L113.7 1246.5L82.3 1194.7Z" fill="#19435d" stroke="#19435d"></path><path d="M234.3 420.5L284.7 426.5L253.7 350.7Z" fill="#297ea6" stroke="#297ea6"></path><path d="M122.7 378.7L92.3 335.9L82.3 398.7Z" fill="#081a28" stroke="#081a28"></path><path d="M464.7 480.3L480 452.3L394.7 427.5Z" fill="#205a7a" stroke="#205a7a"></path><path d="M253.7 350.7L284.7 426.5L327 326.9Z" fill="#1d4e6b" stroke="#1d4e6b"></path><path d="M480 546.1L480 452.3L464.7 480.3Z" fill="#081a28" stroke="#081a28"></path><path d="M284.7 426.5L342.3 435.5L350 342.7Z" fill="#0c2435" stroke="#0c2435"></path><path d="M362.3 353.7L342.3 435.5L394.7 427.5Z" fill="#0c2435" stroke="#0c2435"></path><path d="M241.7 1293.3L352 1244.5L281 1206.7Z" fill="#277297" stroke="#277297"></path><path d="M445.7 1134.9L480 1185.9L480 1105.1Z" fill="#277297" stroke="#277297"></path><path d="M0 1191.9L0 1231.5L25.3 1172.9Z" fill="#15384f" stroke="#15384f"></path><path d="M198.3 298.1L137 337.9L195 356.7Z" fill="#297ea6" stroke="#297ea6"></path><path d="M195 356.7L137 337.9L146 391.5Z" fill="#00101c" stroke="#00101c"></path><path d="M62.3 392.5L0 341.7L0 418.5Z" fill="#0c2435" stroke="#0c2435"></path><path d="M198.3 298.1L195 356.7L224.3 348.9Z" fill="#19435d" stroke="#19435d"></path><path d="M352 1244.5L410.3 1225.7L342.3 1140.9Z" fill="#205a7a" stroke="#205a7a"></path><path d="M0 1231.5L57.3 1256.5L25.3 1172.9Z" fill="#246688" stroke="#246688"></path><path d="M113.7 1246.5L147 1281.5L131.7 1247.7Z" fill="#1d4e6b" stroke="#1d4e6b"></path><path d="M131.7 1247.7L147 1281.5L202.3 1236.7Z" fill="#1d4e6b" stroke="#1d4e6b"></path><path d="M237.3 1247.5L241.7 1293.3L281 1206.7Z" fill="#277297" stroke="#277297"></path><path d="M456.7 1219.7L480 1185.9L445.7 1134.9Z" fill="#246688" stroke="#246688"></path><path d="M198.3 298.1L125.7 335.9L137 337.9Z" fill="#246688" stroke="#246688"></path><path d="M137 337.9L125.7 335.9L122.7 378.7Z" fill="#112e42" stroke="#112e42"></path><path d="M116.7 1344.1L147 1281.5L107.7 1346.3Z" fill="#205a7a" stroke="#205a7a"></path><path d="M125.7 335.9L92.3 335.9L122.7 378.7Z" fill="#19435d" stroke="#19435d"></path><path d="M412.7 366.7L362.3 353.7L394.7 427.5Z" fill="#0c2435" stroke="#0c2435"></path><path d="M254.7 291.9L198.3 298.1L224.3 348.9Z" fill="#15384f" stroke="#15384f"></path><path d="M0 1231.5L0 1247.7L57.3 1256.5Z" fill="#00101c" stroke="#00101c"></path><path d="M57.3 1256.5L43.3 1297.3L113.7 1246.5Z" fill="#15384f" stroke="#15384f"></path><path d="M391.7 312.9L350 342.7L362.3 353.7Z" fill="#1d4e6b" stroke="#1d4e6b"></path><path d="M362.3 353.7L350 342.7L342.3 435.5Z" fill="#00101c" stroke="#00101c"></path><path d="M480 386.5L412.7 366.7L394.7 427.5Z" fill="#277297" stroke="#277297"></path><path d="M480 1240.7L456.7 1219.7L407.7 1281.5Z" fill="#0c2435" stroke="#0c2435"></path><path d="M410.3 1225.7L456.7 1219.7L445.7 1134.9Z" fill="#297ea6" stroke="#297ea6"></path><path d="M147 1281.5L241.7 1293.3L202.3 1236.7Z" fill="#081a28" stroke="#081a28"></path><path d="M352 1244.5L379.3 1276.5L410.3 1225.7Z" fill="#112e42" stroke="#112e42"></path><path d="M353 293.1L327 326.9L350 342.7Z" fill="#0c2435" stroke="#0c2435"></path><path d="M350 342.7L327 326.9L284.7 426.5Z" fill="#246688" stroke="#246688"></path><path d="M125.7 335.9L79.7 289.1L92.3 335.9Z" fill="#205a7a" stroke="#205a7a"></path><path d="M412.7 366.7L396.3 347.9L362.3 353.7Z" fill="#112e42" stroke="#112e42"></path><path d="M92.3 335.9L0 341.7L62.3 392.5Z" fill="#277297" stroke="#277297"></path><path d="M299 1338.1L379.3 1276.5L352 1244.5Z" fill="#081a28" stroke="#081a28"></path><path d="M480 452.3L480 386.5L394.7 427.5Z" fill="#205a7a" stroke="#205a7a"></path><path d="M435.7 285.1L391.7 312.9L396.3 347.9Z" fill="#205a7a" stroke="#205a7a"></path><path d="M254.7 291.9L224.3 348.9L253.7 350.7Z" fill="#19435d" stroke="#19435d"></path><path d="M92.3 335.9L0 305.9L0 341.7Z" fill="#277297" stroke="#277297"></path><path d="M480 1240.7L480 1227.5L456.7 1219.7Z" fill="#297ea6" stroke="#297ea6"></path><path d="M456.7 1219.7L480 1227.5L480 1185.9Z" fill="#0c2435" stroke="#0c2435"></path><path d="M0 1247.7L43.3 1297.3L57.3 1256.5Z" fill="#205a7a" stroke="#205a7a"></path><path d="M147 1281.5L155 1328.3L241.7 1293.3Z" fill="#0c2435" stroke="#0c2435"></path><path d="M260.7 291.1L253.7 350.7L327 326.9Z" fill="#297ea6" stroke="#297ea6"></path><path d="M260.7 291.1L254.7 291.9L253.7 350.7Z" fill="#205a7a" stroke="#205a7a"></path><path d="M353 293.1L260.7 291.1L327 326.9Z" fill="#246688" stroke="#246688"></path><path d="M193 240.1L79.7 289.1L198.3 298.1Z" fill="#15384f" stroke="#15384f"></path><path d="M407.7 1281.5L456.7 1219.7L410.3 1225.7Z" fill="#0c2435" stroke="#0c2435"></path><path d="M404.7 1285.3L407.7 1281.5L379.3 1276.5Z" fill="#19435d" stroke="#19435d"></path><path d="M379.3 1276.5L407.7 1281.5L410.3 1225.7Z" fill="#00101c" stroke="#00101c"></path><path d="M408.3 1307.3L404.7 1285.3L379.3 1276.5Z" fill="#297ea6" stroke="#297ea6"></path><path d="M407.7 1281.5L480 1318.3L480 1240.7Z" fill="#1d4e6b" stroke="#1d4e6b"></path><path d="M116.7 1344.1L155 1328.3L147 1281.5Z" fill="#205a7a" stroke="#205a7a"></path><path d="M241.7 1293.3L299 1338.1L352 1244.5Z" fill="#205a7a" stroke="#205a7a"></path><path d="M193 240.1L198.3 298.1L247.3 242.3Z" fill="#1d4e6b" stroke="#1d4e6b"></path><path d="M198.3 298.1L79.7 289.1L125.7 335.9Z" fill="#15384f" stroke="#15384f"></path><path d="M435.7 285.1L396.3 347.9L412.7 366.7Z" fill="#112e42" stroke="#112e42"></path><path d="M396.3 347.9L391.7 312.9L362.3 353.7Z" fill="#15384f" stroke="#15384f"></path><path d="M480 386.5L480 353.7L412.7 366.7Z" fill="#081a28" stroke="#081a28"></path><path d="M391.7 312.9L353 293.1L350 342.7Z" fill="#0c2435" stroke="#0c2435"></path><path d="M388.3 238.1L353 293.1L391.7 312.9Z" fill="#081a28" stroke="#081a28"></path><path d="M79.7 289.1L0 305.9L92.3 335.9Z" fill="#0c2435" stroke="#0c2435"></path><path d="M241.7 1399.1L299 1338.1L241.7 1293.3Z" fill="#246688" stroke="#246688"></path><path d="M180.3 1351.3L186 1348.1L155 1328.3Z" fill="#297ea6" stroke="#297ea6"></path><path d="M155 1328.3L186 1348.1L241.7 1293.3Z" fill="#297ea6" stroke="#297ea6"></path><path d="M107.7 1346.3L147 1281.5L113.7 1246.5Z" fill="#297ea6" stroke="#297ea6"></path><path d="M315 1354.3L408.3 1307.3L379.3 1276.5Z" fill="#19435d" stroke="#19435d"></path><path d="M404.7 1285.3L408.3 1307.3L407.7 1281.5Z" fill="#19435d" stroke="#19435d"></path><path d="M141.7 1385.9L180.3 1351.3L155 1328.3Z" fill="#081a28" stroke="#081a28"></path><path d="M241.7 1399.1L315 1354.3L299 1338.1Z" fill="#297ea6" stroke="#297ea6"></path><path d="M43.3 1297.3L107.7 1346.3L113.7 1246.5Z" fill="#1d4e6b" stroke="#1d4e6b"></path><path d="M116.7 1344.1L141.7 1385.9L155 1328.3Z" fill="#205a7a" stroke="#205a7a"></path><path d="M241.7 1399.1L241.7 1293.3L186 1348.1Z" fill="#277297" stroke="#277297"></path><path d="M299 1338.1L315 1354.3L379.3 1276.5Z" fill="#205a7a" stroke="#205a7a"></path><path d="M247.3 242.3L254.7 291.9L260.7 291.1Z" fill="#1d4e6b" stroke="#1d4e6b"></path><path d="M247.3 242.3L198.3 298.1L254.7 291.9Z" fill="#1d4e6b" stroke="#1d4e6b"></path><path d="M79.7 289.1L39.3 261.1L0 305.9Z" fill="#15384f" stroke="#15384f"></path><path d="M325 230.3L260.7 291.1L353 293.1Z" fill="#112e42" stroke="#112e42"></path><path d="M325 230.3L247.3 242.3L260.7 291.1Z" fill="#0c2435" stroke="#0c2435"></path><path d="M33.3 248.3L39.3 261.1L143 199.3Z" fill="#00101c" stroke="#00101c"></path><path d="M0 1247.7L0 1342.3L43.3 1297.3Z" fill="#205a7a" stroke="#205a7a"></path><path d="M43.3 1297.3L77.3 1388.9L107.7 1346.3Z" fill="#205a7a" stroke="#205a7a"></path><path d="M107.7 1346.3L141.7 1385.9L116.7 1344.1Z" fill="#19435d" stroke="#19435d"></path><path d="M480 353.7L480 307.9L412.7 366.7Z" fill="#19435d" stroke="#19435d"></path><path d="M480 307.9L435.7 285.1L412.7 366.7Z" fill="#081a28" stroke="#081a28"></path><path d="M143 199.3L39.3 261.1L79.7 289.1Z" fill="#19435d" stroke="#19435d"></path><path d="M39.3 261.1L0 247.3L0 305.9Z" fill="#0c2435" stroke="#0c2435"></path><path d="M77.3 1388.9L141.7 1385.9L107.7 1346.3Z" fill="#1d4e6b" stroke="#1d4e6b"></path><path d="M180.3 1351.3L201.3 1393.1L186 1348.1Z" fill="#277297" stroke="#277297"></path><path d="M405.3 1375.1L480 1318.3L408.3 1307.3Z" fill="#081a28" stroke="#081a28"></path><path d="M408.3 1307.3L480 1318.3L407.7 1281.5Z" fill="#00101c" stroke="#00101c"></path><path d="M141.7 1385.9L201.3 1393.1L180.3 1351.3Z" fill="#15384f" stroke="#15384f"></path><path d="M315 1354.3L405.3 1375.1L408.3 1307.3Z" fill="#297ea6" stroke="#297ea6"></path><path d="M388.3 238.1L325 230.3L353 293.1Z" fill="#19435d" stroke="#19435d"></path><path d="M192.3 164.4L143 199.3L193 240.1Z" fill="#246688" stroke="#246688"></path><path d="M0 230.1L0 247.3L33.3 248.3Z" fill="#0c2435" stroke="#0c2435"></path><path d="M0 230.1L33.3 248.3L0 192.4Z" fill="#00101c" stroke="#00101c"></path><path d="M33.3 248.3L0 247.3L39.3 261.1Z" fill="#19435d" stroke="#19435d"></path><path d="M21.3 1382.1L77.3 1388.9L43.3 1297.3Z" fill="#15384f" stroke="#15384f"></path><path d="M281.7 1451.8L241.7 1399.1L265.7 1454.9Z" fill="#297ea6" stroke="#297ea6"></path><path d="M201.3 1393.1L241.7 1399.1L186 1348.1Z" fill="#205a7a" stroke="#205a7a"></path><path d="M21.3 1382.1L43.3 1297.3L0 1342.3Z" fill="#15384f" stroke="#15384f"></path><path d="M141.7 1385.9L135 1439.9L201.3 1393.1Z" fill="#081a28" stroke="#081a28"></path><path d="M480 307.9L480 279.1L435.7 285.1Z" fill="#081a28" stroke="#081a28"></path><path d="M435.7 285.1L388.3 238.1L391.7 312.9Z" fill="#1d4e6b" stroke="#1d4e6b"></path><path d="M432.7 249.3L388.3 238.1L435.7 285.1Z" fill="#081a28" stroke="#081a28"></path><path d="M0 1365.1L21.3 1382.1L0 1342.3Z" fill="#112e42" stroke="#112e42"></path><path d="M480 279.1L432.7 249.3L435.7 285.1Z" fill="#205a7a" stroke="#205a7a"></path><path d="M344.3 1419.9L405.3 1375.1L315 1354.3Z" fill="#0c2435" stroke="#0c2435"></path><path d="M143 199.3L79.7 289.1L193 240.1Z" fill="#15384f" stroke="#15384f"></path><path d="M254.7 184.3L247.3 242.3L288.7 176.4Z" fill="#205a7a" stroke="#205a7a"></path><path d="M254.7 184.3L193 240.1L247.3 242.3Z" fill="#297ea6" stroke="#297ea6"></path><path d="M0 1365.1L0 1385.9L21.3 1382.1Z" fill="#00101c" stroke="#00101c"></path><path d="M54.3 1444.8L135 1439.9L77.3 1388.9Z" fill="#19435d" stroke="#19435d"></path><path d="M344.3 1419.9L320 1409.9L281.7 1451.8Z" fill="#1d4e6b" stroke="#1d4e6b"></path><path d="M320 1409.9L241.7 1399.1L281.7 1451.8Z" fill="#205a7a" stroke="#205a7a"></path><path d="M241.7 1399.1L320 1409.9L315 1354.3Z" fill="#297ea6" stroke="#297ea6"></path><path d="M288.7 176.4L325 230.3L390.3 189.3Z" fill="#297ea6" stroke="#297ea6"></path><path d="M288.7 176.4L247.3 242.3L325 230.3Z" fill="#246688" stroke="#246688"></path><path d="M192.3 164.4L134.7 177.3L143 199.3Z" fill="#205a7a" stroke="#205a7a"></path><path d="M143 199.3L85.3 166.4L33.3 248.3Z" fill="#112e42" stroke="#112e42"></path><path d="M135 1439.9L141.7 1385.9L77.3 1388.9Z" fill="#19435d" stroke="#19435d"></path><path d="M320 1409.9L344.3 1419.9L315 1354.3Z" fill="#19435d" stroke="#19435d"></path><path d="M390.3 189.3L325 230.3L388.3 238.1Z" fill="#15384f" stroke="#15384f"></path><path d="M254.7 184.3L192.3 164.4L193 240.1Z" fill="#246688" stroke="#246688"></path><path d="M54.3 1444.8L77.3 1388.9L21.3 1382.1Z" fill="#205a7a" stroke="#205a7a"></path><path d="M256.7 135.6L192.3 164.4L254.7 184.3Z" fill="#15384f" stroke="#15384f"></path><path d="M480 279.1L480 229.3L432.7 249.3Z" fill="#205a7a" stroke="#205a7a"></path><path d="M432.7 249.3L390.3 189.3L388.3 238.1Z" fill="#15384f" stroke="#15384f"></path><path d="M85.3 166.4L0 192.4L33.3 248.3Z" fill="#246688" stroke="#246688"></path><path d="M85.3 166.4L143 199.3L134.7 177.3Z" fill="#0c2435" stroke="#0c2435"></path><path d="M480 194.4L390.3 189.3L432.7 249.3Z" fill="#15384f" stroke="#15384f"></path><path d="M124 122.4L85.3 166.4L134.7 177.3Z" fill="#15384f" stroke="#15384f"></path><path d="M440.7 1419.9L439.7 1410.1L405.3 1375.1Z" fill="#00101c" stroke="#00101c"></path><path d="M405.3 1375.1L480 1403.1L480 1318.3Z" fill="#297ea6" stroke="#297ea6"></path><path d="M265.7 1454.9L241.7 1399.1L229.3 1457.9Z" fill="#297ea6" stroke="#297ea6"></path><path d="M366.3 1455.8L440.7 1419.9L405.3 1375.1Z" fill="#205a7a" stroke="#205a7a"></path><path d="M229.3 1457.9L241.7 1399.1L201.3 1393.1Z" fill="#277297" stroke="#277297"></path><path d="M218.3 1466.8L229.3 1457.9L201.3 1393.1Z" fill="#1d4e6b" stroke="#1d4e6b"></path><path d="M0 1450.8L54.3 1444.8L21.3 1382.1Z" fill="#081a28" stroke="#081a28"></path><path d="M135 1439.9L218.3 1466.8L201.3 1393.1Z" fill="#081a28" stroke="#081a28"></path><path d="M366.3 1455.8L405.3 1375.1L344.3 1419.9Z" fill="#19435d" stroke="#19435d"></path><path d="M439.7 1410.1L480 1403.1L405.3 1375.1Z" fill="#246688" stroke="#246688"></path><path d="M480 1421.9L480 1403.1L439.7 1410.1Z" fill="#081a28" stroke="#081a28"></path><path d="M124 1478.8L218.3 1466.8L135 1439.9Z" fill="#19435d" stroke="#19435d"></path><path d="M229.3 1457.9L284 1475.8L265.7 1454.9Z" fill="#0c2435" stroke="#0c2435"></path><path d="M284 1475.8L366.3 1455.8L281.7 1451.8Z" fill="#112e42" stroke="#112e42"></path><path d="M281.7 1451.8L366.3 1455.8L344.3 1419.9Z" fill="#277297" stroke="#277297"></path><path d="M355.3 129.4L293 146.4L288.7 176.4Z" fill="#15384f" stroke="#15384f"></path><path d="M288.7 176.4L256.7 135.6L254.7 184.3Z" fill="#1d4e6b" stroke="#1d4e6b"></path><path d="M192.3 164.4L124 122.4L134.7 177.3Z" fill="#112e42" stroke="#112e42"></path><path d="M284 1475.8L281.7 1451.8L265.7 1454.9Z" fill="#081a28" stroke="#081a28"></path><path d="M440.7 1419.9L480 1421.9L439.7 1410.1Z" fill="#0c2435" stroke="#0c2435"></path><path d="M293 146.4L256.7 135.6L288.7 176.4Z" fill="#246688" stroke="#246688"></path><path d="M480 229.3L480 194.4L432.7 249.3Z" fill="#0c2435" stroke="#0c2435"></path><path d="M390.3 189.3L355.3 129.4L288.7 176.4Z" fill="#1d4e6b" stroke="#1d4e6b"></path><path d="M247.3 91.8L182.3 111.6L256.7 135.6Z" fill="#081a28" stroke="#081a28"></path><path d="M0 1385.9L0 1450.8L21.3 1382.1Z" fill="#246688" stroke="#246688"></path><path d="M54.3 1444.8L77.7 1471.8L135 1439.9Z" fill="#15384f" stroke="#15384f"></path><path d="M237.7 1529.6L284 1475.8L229.3 1457.9Z" fill="#19435d" stroke="#19435d"></path><path d="M237.7 1529.6L229.3 1457.9L218.3 1466.8Z" fill="#19435d" stroke="#19435d"></path><path d="M0 1450.8L77.7 1471.8L54.3 1444.8Z" fill="#297ea6" stroke="#297ea6"></path><path d="M77.7 1471.8L124 1478.8L135 1439.9Z" fill="#081a28" stroke="#081a28"></path><path d="M480 1481.8L480 1421.9L440.7 1419.9Z" fill="#277297" stroke="#277297"></path><path d="M182.3 111.6L124 122.4L192.3 164.4Z" fill="#081a28" stroke="#081a28"></path><path d="M85.3 166.4L20.3 124.6L0 192.4Z" fill="#277297" stroke="#277297"></path><path d="M256.7 135.6L182.3 111.6L192.3 164.4Z" fill="#277297" stroke="#277297"></path><path d="M247.3 91.8L256.7 135.6L293 146.4Z" fill="#0c2435" stroke="#0c2435"></path><path d="M383.3 113.6L355.3 129.4L390.3 189.3Z" fill="#205a7a" stroke="#205a7a"></path><path d="M85.7 109.6L84.7 118.4L124 122.4Z" fill="#19435d" stroke="#19435d"></path><path d="M124 122.4L84.7 118.4L85.3 166.4Z" fill="#112e42" stroke="#112e42"></path><path d="M480 194.4L432.7 150.4L390.3 189.3Z" fill="#1d4e6b" stroke="#1d4e6b"></path><path d="M398.7 1492.6L399.7 1477.8L366.3 1455.8Z" fill="#246688" stroke="#246688"></path><path d="M366.3 1455.8L399.7 1477.8L440.7 1419.9Z" fill="#277297" stroke="#277297"></path><path d="M398.7 1492.6L366.3 1455.8L339 1545.6Z" fill="#081a28" stroke="#081a28"></path><path d="M84.7 118.4L20.3 124.6L85.3 166.4Z" fill="#297ea6" stroke="#297ea6"></path><path d="M115.7 82.8L85.7 109.6L124 122.4Z" fill="#205a7a" stroke="#205a7a"></path><path d="M84.7 118.4L85.7 109.6L20.3 124.6Z" fill="#00101c" stroke="#00101c"></path><path d="M151 48.8L159 99.6L182.3 111.6Z" fill="#081a28" stroke="#081a28"></path><path d="M182.3 111.6L159 99.6L124 122.4Z" fill="#00101c" stroke="#00101c"></path><path d="M160 1557.6L194.3 1516.6L124 1478.8Z" fill="#246688" stroke="#246688"></path><path d="M124 1478.8L194.3 1516.6L218.3 1466.8Z" fill="#112e42" stroke="#112e42"></path><path d="M237.7 1529.6L194.3 1516.6L160 1557.6Z" fill="#0c2435" stroke="#0c2435"></path><path d="M306 67.6L293 146.4L355.3 129.4Z" fill="#00101c" stroke="#00101c"></path><path d="M306 67.6L247.3 91.8L293 146.4Z" fill="#246688" stroke="#246688"></path><path d="M339 1545.6L366.3 1455.8L284 1475.8Z" fill="#00101c" stroke="#00101c"></path><path d="M399.7 1477.8L480 1481.8L440.7 1419.9Z" fill="#277297" stroke="#277297"></path><path d="M432.7 150.4L383.3 113.6L390.3 189.3Z" fill="#15384f" stroke="#15384f"></path><path d="M194.3 1516.6L237.7 1529.6L218.3 1466.8Z" fill="#15384f" stroke="#15384f"></path><path d="M151 48.8L115.7 82.8L159 99.6Z" fill="#1d4e6b" stroke="#1d4e6b"></path><path d="M159 99.6L115.7 82.8L124 122.4Z" fill="#0c2435" stroke="#0c2435"></path><path d="M85.7 109.6L0 83.6L20.3 124.6Z" fill="#15384f" stroke="#15384f"></path><path d="M398.7 1492.6L480 1481.8L399.7 1477.8Z" fill="#1d4e6b" stroke="#1d4e6b"></path><path d="M480 1535.6L480 1481.8L398.7 1492.6Z" fill="#1d4e6b" stroke="#1d4e6b"></path><path d="M176 1601.4L249.7 1544.4L237.7 1529.6Z" fill="#297ea6" stroke="#297ea6"></path><path d="M237.7 1529.6L249.7 1544.4L284 1475.8Z" fill="#246688" stroke="#246688"></path><path d="M160 1557.6L124 1478.8L121.7 1564.4Z" fill="#00101c" stroke="#00101c"></path><path d="M351 50.8L306 67.6L355.3 129.4Z" fill="#1d4e6b" stroke="#1d4e6b"></path><path d="M247.3 91.8L239.7 52.8L182.3 111.6Z" fill="#297ea6" stroke="#297ea6"></path><path d="M0 66.8L0 83.6L85.7 109.6Z" fill="#0c2435" stroke="#0c2435"></path><path d="M20.3 124.6L0 83.6L0 192.4Z" fill="#1d4e6b" stroke="#1d4e6b"></path><path d="M0 66.8L85.7 109.6L48.3 23.8Z" fill="#1d4e6b" stroke="#1d4e6b"></path><path d="M101.7 1561.6L124 1478.8L77.7 1471.8Z" fill="#205a7a" stroke="#205a7a"></path><path d="M340.3 1560.6L339 1545.6L318 1588.4Z" fill="#15384f" stroke="#15384f"></path><path d="M249.7 1544.4L339 1545.6L284 1475.8Z" fill="#00101c" stroke="#00101c"></path><path d="M306 67.6L239.7 52.8L247.3 91.8Z" fill="#246688" stroke="#246688"></path><path d="M239.7 52.8L151 48.8L182.3 111.6Z" fill="#00101c" stroke="#00101c"></path><path d="M83.3 1569.6L101.7 1561.6L77.7 1471.8Z" fill="#15384f" stroke="#15384f"></path><path d="M337.3 1576.4L340.3 1560.6L318 1588.4Z" fill="#081a28" stroke="#081a28"></path><path d="M480 194.4L480 97.6L432.7 150.4Z" fill="#00101c" stroke="#00101c"></path><path d="M432.7 150.4L416.7 57.8L383.3 113.6Z" fill="#15384f" stroke="#15384f"></path><path d="M383.3 113.6L351 50.8L355.3 129.4Z" fill="#297ea6" stroke="#297ea6"></path><path d="M291.7 0L219.3 0L239.7 52.8Z" fill="#205a7a" stroke="#205a7a"></path><path d="M101.7 1561.6L121.7 1564.4L124 1478.8Z" fill="#0c2435" stroke="#0c2435"></path><path d="M48.3 23.8L85.7 109.6L115.7 82.8Z" fill="#00101c" stroke="#00101c"></path><path d="M416.7 57.8L395.7 66.6L383.3 113.6Z" fill="#15384f" stroke="#15384f"></path><path d="M339 1545.6L249.7 1544.4L318 1588.4Z" fill="#19435d" stroke="#19435d"></path><path d="M339 1545.6L340.3 1560.6L398.7 1492.6Z" fill="#246688" stroke="#246688"></path><path d="M395.7 66.6L351 50.8L383.3 113.6Z" fill="#112e42" stroke="#112e42"></path><path d="M113.7 0L115.7 82.8L151 48.8Z" fill="#19435d" stroke="#19435d"></path><path d="M351 50.8L346.3 49.8L306 67.6Z" fill="#112e42" stroke="#112e42"></path><path d="M101.7 1561.6L83.3 1569.6L121.7 1564.4Z" fill="#205a7a" stroke="#205a7a"></path><path d="M318 1588.4L249.7 1544.4L232.3 1616.4Z" fill="#15384f" stroke="#15384f"></path><path d="M0 1558.4L83.3 1569.6L77.7 1471.8Z" fill="#1d4e6b" stroke="#1d4e6b"></path><path d="M0 1450.8L0 1558.4L77.7 1471.8Z" fill="#112e42" stroke="#112e42"></path><path d="M395.7 66.6L400.7 0L351 50.8Z" fill="#297ea6" stroke="#297ea6"></path><path d="M299 0L306 67.6L346.3 49.8Z" fill="#246688" stroke="#246688"></path><path d="M480 97.6L416.7 57.8L432.7 150.4Z" fill="#277297" stroke="#277297"></path><path d="M480 1584.4L480 1535.6L392.7 1611.4Z" fill="#205a7a" stroke="#205a7a"></path><path d="M237.7 1529.6L160 1557.6L176 1601.4Z" fill="#277297" stroke="#277297"></path><path d="M392.7 1611.4L480 1535.6L398.7 1492.6Z" fill="#277297" stroke="#277297"></path><path d="M0 1558.4L0 1567.6L83.3 1569.6Z" fill="#277297" stroke="#277297"></path><path d="M176 1601.4L160 1557.6L121.7 1564.4Z" fill="#205a7a" stroke="#205a7a"></path><path d="M176 1601.4L121.7 1564.4L170 1628.2Z" fill="#081a28" stroke="#081a28"></path><path d="M392.7 1611.4L398.7 1492.6L340.3 1560.6Z" fill="#15384f" stroke="#15384f"></path><path d="M113.7 0L48.3 23.8L115.7 82.8Z" fill="#112e42" stroke="#112e42"></path><path d="M219.3 0L151 48.8L239.7 52.8Z" fill="#246688" stroke="#246688"></path><path d="M59.3 1605.2L121.7 1564.4L83.3 1569.6Z" fill="#19435d" stroke="#19435d"></path><path d="M480 97.6L480 53.8L416.7 57.8Z" fill="#19435d" stroke="#19435d"></path><path d="M299 0L346.3 49.8L400.7 0Z" fill="#19435d" stroke="#19435d"></path><path d="M291.7 0L239.7 52.8L306 67.6Z" fill="#00101c" stroke="#00101c"></path><path d="M291.7 0L306 67.6L299 0Z" fill="#112e42" stroke="#112e42"></path><path d="M219.3 0L158 0L151 48.8Z" fill="#277297" stroke="#277297"></path><path d="M158 0L113.7 0L151 48.8Z" fill="#19435d" stroke="#19435d"></path><path d="M346.3 49.8L351 50.8L400.7 0Z" fill="#19435d" stroke="#19435d"></path><path d="M0 1567.6L59.3 1605.2L83.3 1569.6Z" fill="#0c2435" stroke="#0c2435"></path><path d="M212.3 1620.2L249.7 1544.4L176 1601.4Z" fill="#0c2435" stroke="#0c2435"></path><path d="M212.3 1620.2L232.3 1616.4L249.7 1544.4Z" fill="#205a7a" stroke="#205a7a"></path><path d="M392.7 1611.4L340.3 1560.6L337.3 1576.4Z" fill="#19435d" stroke="#19435d"></path><path d="M400.7 0L395.7 66.6L416.7 57.8Z" fill="#246688" stroke="#246688"></path><path d="M170 1628.2L212.3 1620.2L176 1601.4Z" fill="#081a28" stroke="#081a28"></path><path d="M113.7 0L66.3 0L48.3 23.8Z" fill="#081a28" stroke="#081a28"></path><path d="M48.3 23.8L0 0L0 66.8Z" fill="#15384f" stroke="#15384f"></path><path d="M98.7 1665.2L170 1628.2L121.7 1564.4Z" fill="#297ea6" stroke="#297ea6"></path><path d="M392.7 1611.4L337.3 1576.4L318 1636.2Z" fill="#19435d" stroke="#19435d"></path><path d="M337.3 1576.4L318 1588.4L318 1636.2Z" fill="#277297" stroke="#277297"></path><path d="M318 1588.4L232.3 1616.4L318 1636.2Z" fill="#15384f" stroke="#15384f"></path><path d="M66.3 0L0 0L48.3 23.8Z" fill="#297ea6" stroke="#297ea6"></path><path d="M318 1636.2L232.3 1616.4L243.7 1661.2Z" fill="#0c2435" stroke="#0c2435"></path><path d="M410.3 0L400.7 0L416.7 57.8Z" fill="#19435d" stroke="#19435d"></path><path d="M480 0L410.3 0L416.7 57.8Z" fill="#19435d" stroke="#19435d"></path><path d="M0 1567.6L19.3 1620.4L59.3 1605.2Z" fill="#00101c" stroke="#00101c"></path><path d="M59.3 1605.2L98.7 1665.2L121.7 1564.4Z" fill="#081a28" stroke="#081a28"></path><path d="M243.7 1661.2L232.3 1616.4L212.3 1620.2Z" fill="#246688" stroke="#246688"></path><path d="M392.7 1611.4L480 1612.2L480 1584.4Z" fill="#297ea6" stroke="#297ea6"></path><path d="M243.7 1661.2L212.3 1620.2L177.3 1690Z" fill="#112e42" stroke="#112e42"></path><path d="M480 53.8L480 0L416.7 57.8Z" fill="#297ea6" stroke="#297ea6"></path><path d="M430.7 1653.2L480 1612.2L392.7 1611.4Z" fill="#1d4e6b" stroke="#1d4e6b"></path><path d="M177.3 1690L212.3 1620.2L170 1628.2Z" fill="#0c2435" stroke="#0c2435"></path><path d="M318 1636.2L357.3 1667.2L392.7 1611.4Z" fill="#00101c" stroke="#00101c"></path><path d="M0 1567.6L0 1646.2L19.3 1620.4Z" fill="#205a7a" stroke="#205a7a"></path><path d="M66.7 1690L98.7 1665.2L56.3 1690Z" fill="#246688" stroke="#246688"></path><path d="M98.7 1665.2L59.3 1605.2L56.3 1690Z" fill="#205a7a" stroke="#205a7a"></path><path d="M285.7 1690L318 1636.2L243.7 1661.2Z" fill="#112e42" stroke="#112e42"></path><path d="M337 1690L357.3 1667.2L318 1636.2Z" fill="#19435d" stroke="#19435d"></path><path d="M357.3 1667.2L430.7 1653.2L392.7 1611.4Z" fill="#246688" stroke="#246688"></path><path d="M173 1690L170 1628.2L98.7 1665.2Z" fill="#1d4e6b" stroke="#1d4e6b"></path><path d="M173 1690L177.3 1690L170 1628.2Z" fill="#0c2435" stroke="#0c2435"></path><path d="M66.7 1690L173 1690L98.7 1665.2Z" fill="#112e42" stroke="#112e42"></path><path d="M177.3 1690L285.7 1690L243.7 1661.2Z" fill="#112e42" stroke="#112e42"></path><path d="M357.3 1667.2L410.3 1690L430.7 1653.2Z" fill="#19435d" stroke="#19435d"></path><path d="M56.3 1690L59.3 1605.2L19.3 1620.4Z" fill="#00101c" stroke="#00101c"></path><path d="M0 1646.2L56.3 1690L19.3 1620.4Z" fill="#081a28" stroke="#081a28"></path><path d="M285.7 1690L337 1690L318 1636.2Z" fill="#0c2435" stroke="#0c2435"></path><path d="M0 1646.2L0 1690L56.3 1690Z" fill="#205a7a" stroke="#205a7a"></path><path d="M337 1690L410.3 1690L357.3 1667.2Z" fill="#081a28" stroke="#081a28"></path><path d="M430.7 1653.2L480 1690L480 1612.2Z" fill="#297ea6" stroke="#297ea6"></path><path d="M410.3 1690L444.7 1690L430.7 1653.2Z" fill="#277297" stroke="#277297"></path><path d="M444.7 1690L480 1690L430.7 1653.2Z" fill="#205a7a" stroke="#205a7a"></path></g></svg>