<svg id="visual" viewBox="0 0 1920 1080" width="1920" height="1080" xmlns="http://www.w3.org/2000/svg" xmlns:xlink="http://www.w3.org/1999/xlink" version="1.1"><g stroke-width="1" stroke-linejoin="bevel"><path d="M1034.7 530L880.3 524L889.3 716Z" fill="#49aea5" stroke="#49aea5"></path><path d="M889.3 716L1037.7 704L1034.7 530Z" fill="#21747f" stroke="#21747f"></path><path d="M1246 561L1071.7 377L1034.7 530Z" fill="#0d2f3e" stroke="#0d2f3e"></path><path d="M1034.7 530L1071.7 377L880.3 524Z" fill="#399a9a" stroke="#399a9a"></path><path d="M889.3 716L1064.7 866L1037.7 704Z" fill="#155060" stroke="#155060"></path><path d="M1037.7 704L1246 561L1034.7 530Z" fill="#1a6270" stroke="#1a6270"></path><path d="M1071.7 377L842.3 360L880.3 524Z" fill="#21747f" stroke="#21747f"></path><path d="M620 722L830.3 870L889.3 716Z" fill="#49aea5" stroke="#49aea5"></path><path d="M620 722L889.3 716L880.3 524Z" fill="#2b878d" stroke="#2b878d"></path><path d="M889.3 716L830.3 870L1064.7 866Z" fill="#49aea5" stroke="#49aea5"></path><path d="M1243 687L1246 561L1037.7 704Z" fill="#5cc1af" stroke="#5cc1af"></path><path d="M1064.7 866L1243 687L1037.7 704Z" fill="#5cc1af" stroke="#5cc1af"></path><path d="M842.3 360L628 514L880.3 524Z" fill="#21747f" stroke="#21747f"></path><path d="M628 514L620 722L880.3 524Z" fill="#399a9a" stroke="#399a9a"></path><path d="M1246 561L1249 329L1071.7 377Z" fill="#49aea5" stroke="#49aea5"></path><path d="M1071.7 377L1033.7 206L842.3 360Z" fill="#1a6270" stroke="#1a6270"></path><path d="M833.3 204L651 332L842.3 360Z" fill="#113f4f" stroke="#113f4f"></path><path d="M842.3 360L651 332L628 514Z" fill="#2b878d" stroke="#2b878d"></path><path d="M1249 329L1033.7 206L1071.7 377Z" fill="#00101c" stroke="#00101c"></path><path d="M620 722L673 935L830.3 870Z" fill="#399a9a" stroke="#399a9a"></path><path d="M830.3 870L1038.7 1080L1064.7 866Z" fill="#2b878d" stroke="#2b878d"></path><path d="M1033.7 206L833.3 204L842.3 360Z" fill="#091f2d" stroke="#091f2d"></path><path d="M1038.7 1080L1263 929L1064.7 866Z" fill="#399a9a" stroke="#399a9a"></path><path d="M1064.7 866L1263 929L1243 687Z" fill="#21747f" stroke="#21747f"></path><path d="M1243 687L1488.3 536L1246 561Z" fill="#1a6270" stroke="#1a6270"></path><path d="M1246 561L1492.3 389L1249 329Z" fill="#21747f" stroke="#21747f"></path><path d="M849.3 1080L1038.7 1080L830.3 870Z" fill="#091f2d" stroke="#091f2d"></path><path d="M673 935L849.3 1080L830.3 870Z" fill="#155060" stroke="#155060"></path><path d="M628 514L424.7 691L620 722Z" fill="#21747f" stroke="#21747f"></path><path d="M620 722L442.7 885L673 935Z" fill="#1a6270" stroke="#1a6270"></path><path d="M393.7 529L424.7 691L628 514Z" fill="#113f4f" stroke="#113f4f"></path><path d="M1511.3 738L1488.3 536L1243 687Z" fill="#1a6270" stroke="#1a6270"></path><path d="M440.7 1080L666 1080L673 935Z" fill="#2b878d" stroke="#2b878d"></path><path d="M673 935L666 1080L849.3 1080Z" fill="#5cc1af" stroke="#5cc1af"></path><path d="M1521.3 174L1255 152L1249 329Z" fill="#091f2d" stroke="#091f2d"></path><path d="M1249 329L1255 152L1033.7 206Z" fill="#21747f" stroke="#21747f"></path><path d="M1033.7 206L861.3 0L833.3 204Z" fill="#0d2f3e" stroke="#0d2f3e"></path><path d="M833.3 204L628 157L651 332Z" fill="#399a9a" stroke="#399a9a"></path><path d="M438.7 327L393.7 529L628 514Z" fill="#155060" stroke="#155060"></path><path d="M861.3 0L628 157L833.3 204Z" fill="#0d2f3e" stroke="#0d2f3e"></path><path d="M1038.7 1080L1281 1080L1263 929Z" fill="#00101c" stroke="#00101c"></path><path d="M1457.3 890L1511.3 738L1243 687Z" fill="#49aea5" stroke="#49aea5"></path><path d="M438.7 327L628 514L651 332Z" fill="#21747f" stroke="#21747f"></path><path d="M1457.3 890L1243 687L1263 929Z" fill="#2b878d" stroke="#2b878d"></path><path d="M1281 1080L1457.3 890L1263 929Z" fill="#091f2d" stroke="#091f2d"></path><path d="M220.3 729L442.7 885L424.7 691Z" fill="#155060" stroke="#155060"></path><path d="M424.7 691L442.7 885L620 722Z" fill="#5cc1af" stroke="#5cc1af"></path><path d="M1488.3 536L1492.3 389L1246 561Z" fill="#21747f" stroke="#21747f"></path><path d="M1696.7 513L1492.3 389L1488.3 536Z" fill="#21747f" stroke="#21747f"></path><path d="M628 157L438.7 327L651 332Z" fill="#091f2d" stroke="#091f2d"></path><path d="M1051.7 0L861.3 0L1033.7 206Z" fill="#2b878d" stroke="#2b878d"></path><path d="M1255 152L1051.7 0L1033.7 206Z" fill="#1a6270" stroke="#1a6270"></path><path d="M628 157L416.7 208L438.7 327Z" fill="#399a9a" stroke="#399a9a"></path><path d="M438.7 327L244.3 366L393.7 529Z" fill="#00101c" stroke="#00101c"></path><path d="M449.7 0L416.7 208L628 157Z" fill="#1a6270" stroke="#1a6270"></path><path d="M1255 152L1249 0L1051.7 0Z" fill="#1a6270" stroke="#1a6270"></path><path d="M1492.3 0L1249 0L1255 152Z" fill="#21747f" stroke="#21747f"></path><path d="M442.7 885L440.7 1080L673 935Z" fill="#21747f" stroke="#21747f"></path><path d="M174.3 921L440.7 1080L442.7 885Z" fill="#0d2f3e" stroke="#0d2f3e"></path><path d="M861.3 0L630 0L628 157Z" fill="#00101c" stroke="#00101c"></path><path d="M1694.7 368L1521.3 174L1492.3 389Z" fill="#00101c" stroke="#00101c"></path><path d="M1492.3 389L1521.3 174L1249 329Z" fill="#49aea5" stroke="#49aea5"></path><path d="M1281 1080L1530.3 1080L1457.3 890Z" fill="#49aea5" stroke="#49aea5"></path><path d="M1743.7 877L1736.7 746L1511.3 738Z" fill="#091f2d" stroke="#091f2d"></path><path d="M1511.3 738L1696.7 513L1488.3 536Z" fill="#00101c" stroke="#00101c"></path><path d="M188.3 553L220.3 729L393.7 529Z" fill="#5cc1af" stroke="#5cc1af"></path><path d="M393.7 529L220.3 729L424.7 691Z" fill="#2b878d" stroke="#2b878d"></path><path d="M1736.7 746L1696.7 513L1511.3 738Z" fill="#0d2f3e" stroke="#0d2f3e"></path><path d="M189.3 144L244.3 366L416.7 208Z" fill="#21747f" stroke="#21747f"></path><path d="M416.7 208L244.3 366L438.7 327Z" fill="#091f2d" stroke="#091f2d"></path><path d="M244.3 366L188.3 553L393.7 529Z" fill="#155060" stroke="#155060"></path><path d="M1696.7 513L1694.7 368L1492.3 389Z" fill="#5cc1af" stroke="#5cc1af"></path><path d="M1743.7 877L1511.3 738L1457.3 890Z" fill="#21747f" stroke="#21747f"></path><path d="M1696.7 513L1920 399L1694.7 368Z" fill="#00101c" stroke="#00101c"></path><path d="M630 0L449.7 0L628 157Z" fill="#1a6270" stroke="#1a6270"></path><path d="M1692.7 144L1492.3 0L1521.3 174Z" fill="#091f2d" stroke="#091f2d"></path><path d="M1521.3 174L1492.3 0L1255 152Z" fill="#49aea5" stroke="#49aea5"></path><path d="M1675.7 1080L1743.7 877L1457.3 890Z" fill="#49aea5" stroke="#49aea5"></path><path d="M0 756L174.3 921L220.3 729Z" fill="#091f2d" stroke="#091f2d"></path><path d="M220.3 729L174.3 921L442.7 885Z" fill="#49aea5" stroke="#49aea5"></path><path d="M1530.3 1080L1675.7 1080L1457.3 890Z" fill="#0d2f3e" stroke="#0d2f3e"></path><path d="M1920 216L1692.7 144L1694.7 368Z" fill="#399a9a" stroke="#399a9a"></path><path d="M1694.7 368L1692.7 144L1521.3 174Z" fill="#49aea5" stroke="#49aea5"></path><path d="M244.3 366L0 500L188.3 553Z" fill="#113f4f" stroke="#113f4f"></path><path d="M188.3 553L0 756L220.3 729Z" fill="#1a6270" stroke="#1a6270"></path><path d="M449.7 0L189.3 144L416.7 208Z" fill="#155060" stroke="#155060"></path><path d="M174.3 921L178.3 1080L440.7 1080Z" fill="#00101c" stroke="#00101c"></path><path d="M0 330L0 500L244.3 366Z" fill="#0d2f3e" stroke="#0d2f3e"></path><path d="M174.3 921L0 1080L178.3 1080Z" fill="#091f2d" stroke="#091f2d"></path><path d="M0 500L0 756L188.3 553Z" fill="#49aea5" stroke="#49aea5"></path><path d="M1920 720L1920 548L1736.7 746Z" fill="#155060" stroke="#155060"></path><path d="M1736.7 746L1920 548L1696.7 513Z" fill="#1a6270" stroke="#1a6270"></path><path d="M1920 720L1736.7 746L1743.7 877Z" fill="#00101c" stroke="#00101c"></path><path d="M1920 912L1920 720L1743.7 877Z" fill="#0d2f3e" stroke="#0d2f3e"></path><path d="M449.7 0L186.3 0L189.3 144Z" fill="#113f4f" stroke="#113f4f"></path><path d="M189.3 144L0 330L244.3 366Z" fill="#155060" stroke="#155060"></path><path d="M0 756L0 867L174.3 921Z" fill="#0d2f3e" stroke="#0d2f3e"></path><path d="M1920 0L1724.7 0L1692.7 144Z" fill="#091f2d" stroke="#091f2d"></path><path d="M1692.7 144L1724.7 0L1492.3 0Z" fill="#1a6270" stroke="#1a6270"></path><path d="M1920 548L1920 399L1696.7 513Z" fill="#1a6270" stroke="#1a6270"></path><path d="M0 153L0 330L189.3 144Z" fill="#1a6270" stroke="#1a6270"></path><path d="M1920 1080L1920 912L1743.7 877Z" fill="#00101c" stroke="#00101c"></path><path d="M1920 399L1920 216L1694.7 368Z" fill="#2b878d" stroke="#2b878d"></path><path d="M0 867L0 1080L174.3 921Z" fill="#5cc1af" stroke="#5cc1af"></path><path d="M0 0L0 153L189.3 144Z" fill="#113f4f" stroke="#113f4f"></path><path d="M1675.7 1080L1920 1080L1743.7 877Z" fill="#5cc1af" stroke="#5cc1af"></path><path d="M186.3 0L0 0L189.3 144Z" fill="#155060" stroke="#155060"></path><path d="M1920 216L1920 0L1692.7 144Z" fill="#1a6270" stroke="#1a6270"></path></g></svg>